<svg width="77" height="40" viewBox="0 0 77 40" fill="none" xmlns="http://www.w3.org/2000/svg">
<path d="M23.7788 21C20.7163 21 17.9663 18.8125 17.5913 15.75C17.1538 12.125 19.9663 9 23.5913 9C26.4663 9 28.9038 11.0625 29.4663 13.8125C29.5913 14.4375 29.0913 15 28.4663 15H26.4038C25.9663 15 25.5913 14.75 25.4663 14.3125C25.2163 13.5625 24.4663 13 23.5288 13C22.3413 13 21.4038 14.0625 21.5913 15.3125C21.7163 16.3125 22.6538 17 23.6538 17H32.5288C33.0913 17 33.5288 17.4375 33.5288 18V20C33.5288 20.5 33.0913 21 32.5288 21H23.7788ZM32.5288 23C33.0913 23 33.5288 23.4375 33.5288 24V26C33.5288 26.5 33.0913 27 32.5288 27L11.6538 27C10.6538 27 9.71626 27.625 9.59126 28.625C9.40376 29.875 10.3413 31 11.5288 31C12.4663 31 13.2163 30.375 13.4663 29.625C13.5913 29.1875 13.9663 29 14.4038 29H16.4663C17.0913 29 17.5913 29.5 17.4663 30.125C16.8413 33.25 13.7163 35.5625 10.2788 34.8125C8.02876 34.375 6.15376 32.5 5.71626 30.25C4.90376 26.375 7.84126 23 11.5288 23L32.5288 23ZM8.52876 21C4.15376 21 0.653763 16.875 1.77876 12.3125C2.34126 9.75 4.46626 7.6875 7.02876 7.125C10.7163 6.375 14.0288 8.5 15.1538 11.625C15.3413 12.3125 14.8413 13 14.1538 13H12.0913C11.7163 13 11.3413 12.8125 11.1538 12.5C10.6538 11.5625 9.65376 11 8.52876 11C6.90376 11 5.52876 12.3125 5.52876 14C5.52876 15.625 6.90376 17 8.52876 17H15.8413C16.2788 18.5625 17.0913 19.9375 18.3413 21H8.52876Z" fill="#F29A2E"/>
<path d="M70.4425 15C73.755 15 76.4425 17.6875 76.4425 21V26C76.4425 26.5625 75.9425 27 75.4425 27H72.4425C72.4425 30.375 69.755 33 66.4425 33C63.0675 33 60.4425 30.375 60.4425 27H52.4425C52.4425 30.375 49.755 33 46.4425 33C43.0675 33 40.4425 30.375 40.4425 27H37.4425C36.88 27 36.4425 26.5625 36.4425 26V19C36.4425 17.1875 37.6925 15.625 39.4425 15.1875L42.38 7.5625C43.005 6 44.505 5 46.13 5H59.505C60.755 5.0625 61.88 5.625 62.63 6.5625L69.4425 15H70.4425ZM46.4425 30C48.0675 30 49.4425 28.6875 49.4425 27C49.4425 25.375 48.0675 24 46.4425 24C44.755 24 43.4425 25.375 43.4425 27C43.4425 28.6875 44.755 30 46.4425 30ZM50.9425 15V9H46.13L43.6925 15H50.9425ZM53.9425 15H64.3175L59.505 9H53.9425V15ZM66.4425 30C68.0675 30 69.4425 28.6875 69.4425 27C69.4425 25.375 68.0675 24 66.4425 24C64.755 24 63.4425 25.375 63.4425 27C63.4425 28.6875 64.755 30 66.4425 30Z" fill="#F29A2E"/>
</svg>
